Coordinates
version=1
nRows=17
nColumns=24
inDegrees=yes

Units are S.I. units (second, meters, Newtons, ...)
Angles are in degrees.

endheader
time	pelvis_tilt	pelvis_list	pelvis_rotation	pelvis_tx	pelvis_ty	pelvis_tz	hip_flexion_r	hip_adduction_r	hip_rotation_r	knee_angle_r	ankle_angle_r	subtalar_angle_r	mtp_angle_r	hip_flexion_l	hip_adduction_l	hip_rotation_l	knee_angle_l	ankle_angle_l	subtalar_angle_l	mtp_angle_l	lumbar_extension	lumbar_bending	lumbar_rotation
      0.98316667	     -1.34277198	     -7.01207528	     -4.87578188	     -0.14395436	      0.99762468	      0.32714376	    -11.71119155	      8.01180417	     -2.22654585	     -8.51393940	      6.54675878	     -5.25441620	     -2.65228253	     25.31360769	     -8.63821012	    -11.38338532	     -3.30153746	      0.49544674	     -8.82466818	    -18.31278856	     -8.63291745	      8.29670937	     11.20699786
      0.98733333	     -1.28403490	     -6.99187933	     -5.04369638	     -0.13807125	      0.99695686	      0.32731050	    -11.81125479	      7.87266952	     -2.16592984	     -9.18971484	      6.75264044	     -4.98372434	     -2.44888230	     25.10826301	     -8.63036175	    -11.21052529	     -3.29141395	      0.43777198	     -8.91900062	    -18.22716694	     -8.70026710	      8.18229330	     11.32219571
      0.99150000	     -1.25013769	     -6.98692262	     -5.19079650	     -0.13222992	      0.99627668	      0.32752287	    -11.86690117	      7.76937055	     -2.06684167	     -9.89418507	      6.90740830	     -4.89493450	     -2.37199065	     24.98417017	     -8.64635997	    -11.04206596	     -3.45612826	      0.43250975	     -8.98113058	    -18.19367087	     -8.75307511	      8.07946778	     11.34341265
      0.99566667	     -1.18549744	     -6.88241470	     -5.40648450	     -0.12623189	      0.99575757	      0.32779790	    -11.92482320	      7.52200411	     -1.99755868	    -10.65516398	      7.06811427	     -4.50393792	     -2.13227263	     24.75491433	     -8.57637101	    -10.93337615	     -3.58062332	      0.29023173	     -9.16326001	    -18.08734347	     -8.80289595	      7.84512033	     11.53152153
      0.99983333	     -1.07522914	     -6.77126362	     -5.55269734	     -0.12023877	      0.99531903	      0.32797864	    -12.02293221	      7.27963401	     -1.96736972	    -11.41690740	      7.18986609	     -4.27163640	     -1.43815131	     24.52111454	     -8.47056214	    -10.76206380	     -3.82908212	      0.20019113	     -9.41730419	    -17.75634092	     -8.90997935	      7.57751033	     11.78802666
      1.00400000	     -0.98641089	     -6.69221555	     -5.73200006	     -0.11431980	      0.99491280	      0.32827760	    -12.07118831	      7.07679238	     -1.85452895	    -12.21298421	      7.17336823	     -4.19494011	      4.27864903	     24.32829057	     -8.42523151	    -10.65860723	     -4.15207657	     -0.05280666	     -9.67958944	    -14.88025143	     -9.00800836	      7.37947056	     11.74051355
      1.00816667	     -0.94812348	     -6.61762820	     -5.90784911	     -0.10839499	      0.99443927	      0.32858276	    -12.04215329	      6.88458567	     -1.73747031	    -13.06028409	      7.19010264	     -3.98485498	      4.29893206	     24.23488674	     -8.39798144	    -10.59733080	     -4.62534748	     -0.10709155	     -9.79220746	    -14.86318862	     -9.04536197	      7.18175072	     11.73393799
      1.01233333	     -0.89948137	     -6.48832126	     -6.08297073	     -0.10238919	      0.99405844	      0.32887094	    -11.99133775	      6.62614453	     -1.66857417	    -13.95990055	      7.17055821	     -3.76304180	      4.34526053	     24.10016388	     -8.30536180	    -10.54130152	     -5.06388600	     -0.31701389	    -10.01108662	    -14.83039488	     -9.06704267	      6.92089535	     11.79232778
      1.01650000	     -0.82992948	     -6.36076876	     -6.22061618	     -0.09641286	      0.99373393	      0.32911554	    -11.94901892	      6.37819109	     -1.59882765	    -14.86857578	      7.10372820	     -3.58535952	      4.40389129	     23.97821484	     -8.20295965	    -10.47814338	     -5.58253568	     -0.53289868	    -10.28180066	    -14.79356339	     -9.12202787	      6.64485230	     11.82216235
      1.02066667	     -0.76053169	     -6.21217033	     -6.34801113	     -0.09039657	      0.99346477	      0.32931447	    -11.87651763	      6.10233705	     -1.57589340	    -15.81974744	      6.96785421	     -3.38753944	      4.48939119	     23.85112663	     -8.07154963	    -10.42111876	     -6.10332793	     -0.82034213	    -10.58685719	    -14.74397619	     -9.16215439	      6.35703968	     11.84243086
      1.02483333	     -0.68716547	     -6.05686717	     -6.44053223	     -0.08438388	      0.99323509	      0.32943829	    -11.77960724	      5.82305987	     -1.58748395	    -16.81020496	      6.77183951	     -3.20025801	      4.60114174	     23.73614538	     -7.91928757	    -10.35653587	     -6.65303730	     -1.13772044	    -10.91923924	    -14.68352983	     -9.20277071	      6.05761039	     11.83723479
      1.02900000	     -0.63082386	     -5.89572905	     -6.50389112	     -0.07836935	      0.99301822	      0.32949185	    -11.63275217	      5.54003964	     -1.64279249	    -17.84357223	      6.50711229	     -3.01573160	      4.75131708	     23.64976878	     -7.75014550	    -10.27611445	     -7.21599802	     -1.49768311	    -11.28051938	    -14.60709181	     -9.22178469	      5.76124118	     11.80166444
      1.03316667	     -0.56960585	     -5.75006140	     -6.36448743	     -0.07237139	      0.99274650	      0.32895156	    -11.46322108	      5.27224166	     -1.98428925	    -18.90821573	      6.18086146	     -2.71997200	      5.42027066	     23.61223712	     -7.47836677	     -9.88654581	     -7.79489454	     -1.90382129	    -11.87480463	    -14.27696086	     -9.23974238	      5.53515140	     11.68259895
      1.03733333	     -0.54343455	     -5.58355954	     -6.36583519	     -0.06635105	      0.99253794	      0.32889744	    -11.21709759	      4.99107584	     -2.13063949	    -20.03274028	      5.75621407	     -2.64179887	     11.57819946	     23.59975293	     -7.29912753	     -9.86517489	     -8.42887965	     -2.27397622	    -12.10505160	    -11.40002730	     -9.21967417	      5.25902078	     11.34921060
      1.04150000	     -0.51568158	     -5.41703833	     -6.40794352	     -0.06039940	      0.99242431	      0.32890565	    -10.92579984	      4.70843981	     -2.20453721	    -21.22650867	      5.26231124	     -2.59822397	     11.61403789	     23.55861899	     -7.13267138	     -9.85296341	     -9.02388040	     -2.66571000	    -12.42369116	    -11.37745094	     -9.21308564	      4.96273087	     11.34320388
      1.04566667	     -0.50131675	     -5.24140967	     -6.32574172	     -0.05447135	      0.99224055	      0.32858859	    -10.58050502	      4.41490216	     -2.45912901	    -22.48353167	      4.79168883	     -2.42167237	     11.73680178	     23.58237391	     -6.89855600	     -9.72110073	     -9.66617236	     -3.06998151	    -12.82451054	    -11.32376694	     -9.18936876	      4.67045838	     11.20427662
      1.04983333	     -0.55034524	     -5.08901932	     -6.14893328	     -0.04855042	      0.99194889	      0.32798445	    -10.13101337	      4.14747567	     -2.84196594	    -23.79139501	      4.17943823	     -2.23744933	     12.04204006	     23.70353049	     -6.64270043	     -9.45012263	    -10.33874633	     -3.37401960	    -13.25540829	    -11.21584912	     -9.09173853	      4.46268253	     10.89602395
